<svg width="40" height="40" viewBox="0 0 40 40" fill="none" xmlns="http://www.w3.org/2000/svg">
<path d="M8 11.256V7.5C8 7.10218 7.84196 6.72064 7.56066 6.43934C7.27936 6.15804 6.89782 6 6.5 6C6.10218 6 5.72064 6.15804 5.43934 6.43934C5.15804 6.72064 5 7.10218 5 7.5V14.5C5 15.328 5.672 16 6.5 16H14.5C14.8978 16 15.2794 15.842 15.5607 15.5607C15.842 15.2794 16 14.8978 16 14.5C16 14.1022 15.842 13.7206 15.5607 13.4393C15.2794 13.158 14.8978 13 14.5 13H10.452C12.84 10.22 16.258 8.5 20 8.5C24.8 8.5 29.06 11.33 31.31 15.586C31.598 16.132 32.15 16.5 32.768 16.5C33.842 16.5 34.588 15.434 34.104 14.474C31.422 9.158 26.152 5.5 20 5.5C15.188 5.5 10.916 7.738 8 11.256ZM16.5 21.5C16.5002 21.2131 16.4181 20.9321 16.2634 20.6904C16.1087 20.4488 15.888 20.2565 15.6273 20.1365C15.3667 20.0165 15.0771 19.9738 14.7929 20.0134C14.5087 20.053 14.2419 20.1733 14.024 20.36L10.524 23.36C10.3743 23.4882 10.2513 23.6446 10.162 23.8203C10.0728 23.996 10.019 24.1875 10.0038 24.384C9.98853 24.5805 10.0122 24.7781 10.0733 24.9654C10.1344 25.1528 10.2318 25.3263 10.36 25.476C10.6189 25.7783 10.9872 25.9655 11.384 25.9962C11.5805 26.0115 11.7781 25.9878 11.9654 25.9267C12.1528 25.8656 12.3263 25.7682 12.476 25.64L13.5 24.76V32.5C13.5 32.8978 13.658 33.2794 13.9393 33.5607C14.2206 33.842 14.6022 34 15 34C15.3978 34 15.7794 33.842 16.0607 33.5607C16.342 33.2794 16.5 32.8978 16.5 32.5V21.5ZM30 27C30 30.866 28.75 34 25 34C21.25 34 20 30.866 20 27C20 23.134 21.25 20 25 20C28.75 20 30 23.134 30 27ZM27 27C27 25.3 26.71 24.202 26.352 23.624C26.2496 23.4399 26.0997 23.2866 25.918 23.18C25.78 23.104 25.51 23 25 23C24.49 23 24.22 23.104 24.08 23.18C23.8988 23.2874 23.7496 23.4414 23.648 23.626C23.29 24.202 23 25.3 23 27C23 28.7 23.29 29.798 23.648 30.376C23.7504 30.5601 23.9003 30.7134 24.082 30.82C24.22 30.896 24.49 31 25 31C25.51 31 25.78 30.896 25.92 30.82C26.1012 30.7126 26.2504 30.5586 26.352 30.374C26.71 29.798 27 28.7 27 27Z" fill="white"/>
</svg>
