<svg width="30" height="30" viewBox="0 0 30 30" fill="none" xmlns="http://www.w3.org/2000/svg">
<path d="M24.75 26.25H5.25C4.8375 26.25 4.5 26.6719 4.5 27.1875V29.0625C4.5 29.5781 4.8375 30 5.25 30H24.75C25.1625 30 25.5 29.5781 25.5 29.0625V27.1875C25.5 26.6719 25.1625 26.25 24.75 26.25ZM27.75 7.5C26.5078 7.5 25.5 8.75977 25.5 10.3125C25.5 10.7285 25.575 11.1152 25.7063 11.4727L22.3125 14.0156C21.5906 14.5547 20.6578 14.25 20.2406 13.3359L16.4203 4.98047C16.9219 4.46484 17.25 3.69141 17.25 2.8125C17.25 1.25977 16.2422 0 15 0C13.7578 0 12.75 1.25977 12.75 2.8125C12.75 3.69141 13.0781 4.46484 13.5797 4.98047L9.75937 13.3359C9.34219 14.25 8.40469 14.5547 7.6875 14.0156L4.29844 11.4727C4.425 11.1211 4.50469 10.7285 4.50469 10.3125C4.50469 8.75977 3.49687 7.5 2.25469 7.5C1.0125 7.5 0 8.75977 0 10.3125C0 11.8652 1.00781 13.125 2.25 13.125C2.37188 13.125 2.49375 13.1016 2.61094 13.0781L6 24.375H24L27.3891 13.0781C27.5062 13.1016 27.6281 13.125 27.75 13.125C28.9922 13.125 30 11.8652 30 10.3125C30 8.75977 28.9922 7.5 27.75 7.5Z" fill="black"/>
</svg>
