<svg width="40" height="40" viewBox="0 0 40 40" fill="none" xmlns="http://www.w3.org/2000/svg">
<path d="M31.4641 11.256V7.5C31.4641 7.10218 31.6221 6.72064 31.9034 6.43934C32.1847 6.15804 32.5662 6 32.9641 6C33.3619 6 33.7434 6.15804 34.0247 6.43934C34.306 6.72064 34.4641 7.10218 34.4641 7.5V14.5C34.4641 14.8978 34.306 15.2794 34.0247 15.5607C33.7434 15.842 33.3619 16 32.9641 16H24.9641C24.5662 16 24.1847 15.842 23.9034 15.5607C23.6221 15.2794 23.4641 14.8978 23.4641 14.5C23.4641 14.1022 23.6221 13.7206 23.9034 13.4393C24.1847 13.158 24.5662 13 24.9641 13H29.012C26.622 10.22 23.2061 8.5 19.4641 8.5C14.6641 8.5 10.4041 11.33 8.15405 15.586C8.01705 15.8565 7.80891 16.0845 7.55202 16.2455C7.29513 16.4066 6.9992 16.4945 6.69605 16.5C5.62205 16.5 4.87605 15.434 5.35805 14.474C8.04205 9.158 13.3121 5.5 19.4641 5.5C24.2761 5.5 28.5481 7.738 31.4641 11.256ZM25 34C28.75 34 30 30.866 30 27C30 23.134 28.75 20 25 20C21.25 20 20.0001 23.134 20.0001 27C20.0001 30.866 21.25 34 25 34ZM26.352 30.374C26.2499 30.5588 26.1 30.7128 25.918 30.82C25.7801 30.896 25.51 31 25 31C24.4901 31 24.2201 30.896 24.08 30.82C23.8988 30.7126 23.7496 30.5586 23.6481 30.374C23.2901 29.798 23 28.7 23 27C23 25.3 23.2901 24.202 23.6481 23.624C23.7504 23.4399 23.9003 23.2865 24.0821 23.18C24.2201 23.104 24.4901 23 25 23C25.51 23 25.7801 23.104 25.92 23.18C26.1013 23.2874 26.2504 23.4414 26.352 23.626C26.71 24.202 27 25.3 27 27C27 28.7 26.71 29.798 26.352 30.376V30.374ZM16.5001 21.5C16.5002 21.2131 16.4181 20.9321 16.2634 20.6904C16.1088 20.4488 15.888 20.2565 15.6274 20.1365C15.3667 20.0165 15.0772 19.9738 14.793 20.0134C14.5088 20.053 14.2419 20.1733 14.0241 20.36L10.5241 23.36C10.3743 23.4882 10.2513 23.6446 10.1621 23.8203C10.0728 23.996 10.019 24.1875 10.0038 24.384C9.98858 24.5805 10.0122 24.7781 10.0733 24.9654C10.1345 25.1528 10.2319 25.3263 10.3601 25.476C10.6189 25.7783 10.9873 25.9655 11.3841 25.9962C11.5806 26.0115 11.7781 25.9878 11.9655 25.9267C12.1529 25.8656 12.3263 25.7682 12.4761 25.64L13.5001 24.76V32.5C13.5001 32.8978 13.6581 33.2794 13.9394 33.5607C14.2207 33.842 14.6022 34 15.0001 34C15.3979 34 15.7794 33.842 16.0607 33.5607C16.342 33.2794 16.5001 32.8978 16.5001 32.5V21.5Z" fill="white"/>
</svg>
