<svg width="40" height="40" viewBox="0 0 40 40" fill="none" xmlns="http://www.w3.org/2000/svg">
<path d="M8.10811 0H1.62162C0.682162 0 0 0.78875 0 1.875V38.125C0 39.2113 0.682162 40 1.62162 40H38.3784C39.3178 40 40 39.2113 40 38.125V1.875C40 0.78875 39.3178 0 38.3784 0H8.10811ZM1.08108 38.125V1.875C1.08108 1.48375 1.28324 1.25 1.62162 1.25H7.56757V38.75H1.62162C1.28324 38.75 1.08108 38.5162 1.08108 38.125ZM8.64865 38.75V1.25H31.3513V38.75H8.64865ZM38.9189 1.875V38.125C38.9189 38.5162 38.7168 38.75 38.3784 38.75H32.4324V1.25H38.3784C38.7168 1.25 38.9189 1.48375 38.9189 1.875Z" fill="black"/>
<path d="M15.9751 12.605C15.8936 12.5423 15.7989 12.5063 15.701 12.5008C15.6032 12.4953 15.5059 12.5205 15.4195 12.5738C15.3335 12.6276 15.2618 12.7072 15.2117 12.8042C15.1617 12.9012 15.1352 13.012 15.1351 13.125V28.125C15.1352 28.2381 15.1618 28.349 15.212 28.446C15.2623 28.5429 15.3343 28.6223 15.4205 28.6757C15.5067 28.7291 15.6038 28.7544 15.7015 28.749C15.7992 28.7436 15.8937 28.7077 15.9751 28.645L25.7049 21.145C25.7787 21.0878 25.8391 21.0104 25.881 20.9197C25.9228 20.829 25.9447 20.7278 25.9447 20.625C25.9447 20.5223 25.9228 20.4211 25.881 20.3304C25.8391 20.2397 25.7787 20.1623 25.7049 20.105L15.9751 12.605V12.605ZM16.2162 26.9575V14.2925L24.4313 20.625L16.2162 26.9575Z" fill="black"/>
<path d="M5.40534 10H3.24318C3.09982 10 2.96233 10.0658 2.86096 10.1831C2.75959 10.3003 2.70264 10.4592 2.70264 10.625C2.70264 10.7908 2.75959 10.9497 2.86096 11.0669C2.96233 11.1842 3.09982 11.25 3.24318 11.25H5.40534C5.5487 11.25 5.68619 11.1842 5.78756 11.0669C5.88893 10.9497 5.94588 10.7908 5.94588 10.625C5.94588 10.4592 5.88893 10.3003 5.78756 10.1831C5.68619 10.0658 5.5487 10 5.40534 10Z" fill="black"/>
<path d="M3.24318 6.25H5.40534C5.5487 6.25 5.68619 6.18415 5.78756 6.06694C5.88893 5.94973 5.94588 5.79076 5.94588 5.625C5.94588 5.45924 5.88893 5.30027 5.78756 5.18306C5.68619 5.06585 5.5487 5 5.40534 5H3.24318C3.09982 5 2.96233 5.06585 2.86096 5.18306C2.75959 5.30027 2.70264 5.45924 2.70264 5.625C2.70264 5.79076 2.75959 5.94973 2.86096 6.06694C2.96233 6.18415 3.09982 6.25 3.24318 6.25Z" fill="black"/>
<path d="M5.40534 15H3.24318C3.09982 15 2.96233 15.0658 2.86096 15.1831C2.75959 15.3003 2.70264 15.4592 2.70264 15.625C2.70264 15.7908 2.75959 15.9497 2.86096 16.0669C2.96233 16.1842 3.09982 16.25 3.24318 16.25H5.40534C5.5487 16.25 5.68619 16.1842 5.78756 16.0669C5.88893 15.9497 5.94588 15.7908 5.94588 15.625C5.94588 15.4592 5.88893 15.3003 5.78756 15.1831C5.68619 15.0658 5.5487 15 5.40534 15Z" fill="black"/>
<path d="M5.40534 20H3.24318C3.09982 20 2.96233 20.0658 2.86096 20.1831C2.75959 20.3003 2.70264 20.4592 2.70264 20.625C2.70264 20.7908 2.75959 20.9497 2.86096 21.0669C2.96233 21.1842 3.09982 21.25 3.24318 21.25H5.40534C5.5487 21.25 5.68619 21.1842 5.78756 21.0669C5.88893 20.9497 5.94588 20.7908 5.94588 20.625C5.94588 20.4592 5.88893 20.3003 5.78756 20.1831C5.68619 20.0658 5.5487 20 5.40534 20V20Z" fill="black"/>
<path d="M5.40534 25H3.24318C3.09982 25 2.96233 25.0658 2.86096 25.1831C2.75959 25.3003 2.70264 25.4592 2.70264 25.625C2.70264 25.7908 2.75959 25.9497 2.86096 26.0669C2.96233 26.1842 3.09982 26.25 3.24318 26.25H5.40534C5.5487 26.25 5.68619 26.1842 5.78756 26.0669C5.88893 25.9497 5.94588 25.7908 5.94588 25.625C5.94588 25.4592 5.88893 25.3003 5.78756 25.1831C5.68619 25.0658 5.5487 25 5.40534 25Z" fill="black"/>
<path d="M5.40534 30H3.24318C3.09982 30 2.96233 30.0658 2.86096 30.1831C2.75959 30.3003 2.70264 30.4592 2.70264 30.625C2.70264 30.7908 2.75959 30.9497 2.86096 31.0669C2.96233 31.1842 3.09982 31.25 3.24318 31.25H5.40534C5.5487 31.25 5.68619 31.1842 5.78756 31.0669C5.88893 30.9497 5.94588 30.7908 5.94588 30.625C5.94588 30.4592 5.88893 30.3003 5.78756 30.1831C5.68619 30.0658 5.5487 30 5.40534 30Z" fill="black"/>
<path d="M5.40534 35H3.24318C3.09982 35 2.96233 35.0658 2.86096 35.1831C2.75959 35.3003 2.70264 35.4592 2.70264 35.625C2.70264 35.7908 2.75959 35.9497 2.86096 36.0669C2.96233 36.1842 3.09982 36.25 3.24318 36.25H5.40534C5.5487 36.25 5.68619 36.1842 5.78756 36.0669C5.88893 35.9497 5.94588 35.7908 5.94588 35.625C5.94588 35.4592 5.88893 35.3003 5.78756 35.1831C5.68619 35.0658 5.5487 35 5.40534 35Z" fill="black"/>
<path d="M34.5946 11.25H36.7568C36.9001 11.25 37.0376 11.1842 37.139 11.0669C37.2404 10.9497 37.2973 10.7908 37.2973 10.625C37.2973 10.4592 37.2404 10.3003 37.139 10.1831C37.0376 10.0658 36.9001 10 36.7568 10H34.5946C34.4513 10 34.3138 10.0658 34.2124 10.1831C34.111 10.3003 34.0541 10.4592 34.0541 10.625C34.0541 10.7908 34.111 10.9497 34.2124 11.0669C34.3138 11.1842 34.4513 11.25 34.5946 11.25Z" fill="black"/>
<path d="M34.5946 6.25H36.7568C36.9001 6.25 37.0376 6.18415 37.139 6.06694C37.2404 5.94973 37.2973 5.79076 37.2973 5.625C37.2973 5.45924 37.2404 5.30027 37.139 5.18306C37.0376 5.06585 36.9001 5 36.7568 5H34.5946C34.4513 5 34.3138 5.06585 34.2124 5.18306C34.111 5.30027 34.0541 5.45924 34.0541 5.625C34.0541 5.79076 34.111 5.94973 34.2124 6.06694C34.3138 6.18415 34.4513 6.25 34.5946 6.25Z" fill="black"/>
<path d="M34.5946 16.25H36.7568C36.9001 16.25 37.0376 16.1842 37.139 16.0669C37.2404 15.9497 37.2973 15.7908 37.2973 15.625C37.2973 15.4592 37.2404 15.3003 37.139 15.1831C37.0376 15.0658 36.9001 15 36.7568 15H34.5946C34.4513 15 34.3138 15.0658 34.2124 15.1831C34.111 15.3003 34.0541 15.4592 34.0541 15.625C34.0541 15.7908 34.111 15.9497 34.2124 16.0669C34.3138 16.1842 34.4513 16.25 34.5946 16.25Z" fill="black"/>
<path d="M34.5946 21.25H36.7568C36.9001 21.25 37.0376 21.1842 37.139 21.0669C37.2404 20.9497 37.2973 20.7908 37.2973 20.625C37.2973 20.4592 37.2404 20.3003 37.139 20.1831C37.0376 20.0658 36.9001 20 36.7568 20H34.5946C34.4513 20 34.3138 20.0658 34.2124 20.1831C34.111 20.3003 34.0541 20.4592 34.0541 20.625C34.0541 20.7908 34.111 20.9497 34.2124 21.0669C34.3138 21.1842 34.4513 21.25 34.5946 21.25Z" fill="black"/>
<path d="M34.5946 26.25H36.7568C36.9001 26.25 37.0376 26.1842 37.139 26.0669C37.2404 25.9497 37.2973 25.7908 37.2973 25.625C37.2973 25.4592 37.2404 25.3003 37.139 25.1831C37.0376 25.0658 36.9001 25 36.7568 25H34.5946C34.4513 25 34.3138 25.0658 34.2124 25.1831C34.111 25.3003 34.0541 25.4592 34.0541 25.625C34.0541 25.7908 34.111 25.9497 34.2124 26.0669C34.3138 26.1842 34.4513 26.25 34.5946 26.25Z" fill="black"/>
<path d="M34.5946 31.25H36.7568C36.9001 31.25 37.0376 31.1842 37.139 31.0669C37.2404 30.9497 37.2973 30.7908 37.2973 30.625C37.2973 30.4592 37.2404 30.3003 37.139 30.1831C37.0376 30.0658 36.9001 30 36.7568 30H34.5946C34.4513 30 34.3138 30.0658 34.2124 30.1831C34.111 30.3003 34.0541 30.4592 34.0541 30.625C34.0541 30.7908 34.111 30.9497 34.2124 31.0669C34.3138 31.1842 34.4513 31.25 34.5946 31.25Z" fill="black"/>
<path d="M36.7568 35H34.5946C34.4513 35 34.3138 35.0658 34.2124 35.1831C34.111 35.3003 34.0541 35.4592 34.0541 35.625C34.0541 35.7908 34.111 35.9497 34.2124 36.0669C34.3138 36.1842 34.4513 36.25 34.5946 36.25H36.7568C36.9001 36.25 37.0376 36.1842 37.139 36.0669C37.2404 35.9497 37.2973 35.7908 37.2973 35.625C37.2973 35.4592 37.2404 35.3003 37.139 35.1831C37.0376 35.0658 36.9001 35 36.7568 35Z" fill="black"/>
</svg>
