<svg width="30" height="31" viewBox="0 0 30 31" fill="none" xmlns="http://www.w3.org/2000/svg">
<path d="M29.6375 1.36252C29.4688 1.19461 29.2557 1.07836 29.0232 1.02743C28.7907 0.976495 28.5484 0.993007 28.325 1.07502L0.825001 11.075C0.587836 11.165 0.383651 11.325 0.239565 11.5337C0.0954787 11.7425 0.0183105 11.9901 0.0183105 12.2438C0.0183105 12.4974 0.0954787 12.7451 0.239565 12.9538C0.383651 13.1626 0.587836 13.3226 0.825001 13.4125L11.5625 17.7L19.4875 9.75002L21.25 11.5125L13.2875 19.475L17.5875 30.2125C17.6801 30.4451 17.8405 30.6445 18.0477 30.7849C18.255 30.9253 18.4997 31.0003 18.75 31C19.0026 30.9948 19.2477 30.9132 19.453 30.7659C19.6583 30.6187 19.8142 30.4126 19.9 30.175L29.9 2.67502C29.9852 2.45386 30.0057 2.21305 29.9592 1.98067C29.9128 1.74829 29.8012 1.5339 29.6375 1.36252Z" fill="white"/>
</svg>
