<svg width="127" height="128" viewBox="0 0 127 128" fill="none" xmlns="http://www.w3.org/2000/svg">
<g filter="url(#filter0_d)">
<path d="M95.7187 2.91937C84.3225 2.91937 74.6156 10.0387 70.7306 20.0625H47.6194C43.3666 20.0625 39.288 21.7519 36.2809 24.759C33.2737 27.7662 31.5844 31.8448 31.5844 36.0975C31.5844 40.3502 33.2737 44.4288 36.2809 47.436C39.288 50.4431 43.3666 52.1325 47.6194 52.1325H81.0281C85.3898 55.003 90.4972 56.5323 95.7187 56.5312C110.52 56.5312 122.524 44.5256 122.524 29.7281C122.524 14.9194 110.52 2.91937 95.7187 2.91937Z" fill="#354A52"/>
<path d="M92.4206 12.3581C83.0268 12.3581 75.0337 18.2194 71.8387 26.4806H52.7943C49.2886 26.4811 45.9267 27.874 43.4478 30.3529C40.9689 32.8317 39.5761 36.1937 39.5756 39.6994C39.5756 46.9931 45.4949 52.9181 52.7943 52.9181H80.3212C83.9132 55.2848 88.1209 56.545 92.4224 56.5425C104.623 56.5425 114.512 46.6519 114.512 34.4569C114.512 22.2506 104.621 12.3675 92.4206 12.3675" fill="#243438"/>
<path d="M86.3812 31.9312C86.3812 36.33 89.8631 39.9 94.155 39.9C98.4637 39.9 101.955 36.3319 101.955 31.9312C101.955 27.5231 98.4637 23.9512 94.155 23.9512C89.8631 23.9512 86.3812 27.5231 86.3812 31.9312Z" fill="#56787F"/>
<path d="M67.7607 89.9194H74.8819V119.497H67.7607V89.9194Z" fill="#243438"/>
<path d="M58.1756 119.498H50.325L62.1056 80.2125H69.9619L58.1756 119.498Z" fill="#243438"/>
<path d="M83.1056 119.498H90.9619L79.1794 80.2125H71.3212L83.1056 119.498Z" fill="#243438"/>
<path d="M53.0438 85.125H89.6026V103.408H53.0438V85.125Z" fill="#243438"/>
<path d="M41.1469 81.1125L4.59003 88.9688V51.0563L41.1469 62.8388V81.1125Z" fill="#243438"/>
<path d="M29.5762 51.0563H115.995V94.275H29.5762V51.0563Z" fill="#34484C"/>
<path d="M65.3624 57.1331H104.464V76.6894H65.3624V57.1331Z" fill="#56787F"/>
<path d="M33.493 76.95H36.4143V89.9212H33.493V76.95Z" fill="#56787F"/>
<path d="M40.183 76.95H43.1024V89.9212H40.183V76.95Z" fill="#56787F"/>
<path d="M46.9293 76.95H49.8524V89.9212H46.9293V76.95Z" fill="#56787F"/>
</g>
<defs>
<filter id="filter0_d" x="-1" y="0" width="128" height="128" filterUnits="userSpaceOnUse" color-interpolation-filters="sRGB">
<feFlood flood-opacity="0" result="BackgroundImageFix"/>
<feColorMatrix in="SourceAlpha" type="matrix" values="0 0 0 0 0 0 0 0 0 0 0 0 0 0 0 0 0 0 127 0"/>
<feOffset dy="4"/>
<feGaussianBlur stdDeviation="2"/>
<feColorMatrix type="matrix" values="0 0 0 0 0 0 0 0 0 0 0 0 0 0 0 0 0 0 0.25 0"/>
<feBlend mode="normal" in2="BackgroundImageFix" result="effect1_dropShadow"/>
<feBlend mode="normal" in="SourceGraphic" in2="effect1_dropShadow" result="shape"/>
</filter>
</defs>
</svg>
