<svg width="70" height="70" viewBox="0 0 70 70" fill="none" xmlns="http://www.w3.org/2000/svg">
<path d="M60.277 30.3975C61.1001 30.8507 61.7865 31.5165 62.2646 32.3254C62.7427 33.1344 62.9949 34.0568 62.9949 34.9965C62.9949 35.9361 62.7427 36.8586 62.2646 37.6675C61.7865 38.4765 61.1001 39.1423 60.277 39.5955L25.277 58.8385C24.4775 59.2775 23.5775 59.5007 22.6655 59.486C21.7535 59.4713 20.8611 59.2193 20.0762 58.7547C19.2912 58.2902 18.6409 57.6292 18.1891 56.8368C17.7374 56.0445 17.4999 55.1481 17.5 54.236V15.757C17.5002 14.8447 17.738 13.9482 18.1902 13.1558C18.6424 12.3635 19.2932 11.7026 20.0786 11.2384C20.8639 10.7742 21.7567 10.5226 22.6689 10.5085C23.5811 10.4944 24.4812 10.7182 25.2805 11.158L60.2805 30.3975H60.277Z" fill="black"/>
</svg>
