<svg width="70" height="70" viewBox="0 0 70 70" fill="none" xmlns="http://www.w3.org/2000/svg">
<path d="M62.0997 21.2975C61.7801 20.0939 61.1499 18.9955 60.2722 18.1121C59.3945 17.2288 58.3001 16.5916 57.0986 16.2643C52.6876 15.0743 35 15.0743 35 15.0743C35 15.0743 17.3123 15.0743 12.9014 16.2643C11.6999 16.5916 10.6055 17.2288 9.72774 18.1121C8.85003 18.9955 8.21982 20.0939 7.90024 21.2975C6.71802 25.7366 6.71802 35 6.71802 35C6.71802 35 6.71802 44.2633 7.90024 48.7034C8.21982 49.907 8.85003 51.0055 9.72774 51.8888C10.6055 52.7721 11.6999 53.4094 12.9014 53.7366C17.3123 54.9257 35 54.9257 35 54.9257C35 54.9257 52.6876 54.9257 57.0986 53.7366C58.3001 53.4094 59.3945 52.7721 60.2722 51.8888C61.1499 51.0055 61.7801 49.907 62.0997 48.7034C63.2819 44.2633 63.2819 35 63.2819 35C63.2819 35 63.2819 25.7366 62.0997 21.2975Z" fill="#EA5A47"/>
<path d="M29.2153 43.4097L43.9989 35L29.2153 26.5903V43.4097Z" fill="white"/>
<path d="M62.0997 21.2975C61.7801 20.0939 61.1499 18.9955 60.2722 18.1121C59.3945 17.2288 58.3001 16.5916 57.0986 16.2643C52.6876 15.0743 35 15.0743 35 15.0743C35 15.0743 17.3123 15.0743 12.9014 16.2643C11.6999 16.5916 10.6055 17.2288 9.72774 18.1121C8.85003 18.9955 8.21982 20.0939 7.90024 21.2975C6.71802 25.7366 6.71802 35 6.71802 35C6.71802 35 6.71802 44.2633 7.90024 48.7034C8.21982 49.907 8.85003 51.0055 9.72774 51.8888C10.6055 52.7721 11.6999 53.4094 12.9014 53.7366C17.3123 54.9257 35 54.9257 35 54.9257C35 54.9257 52.6876 54.9257 57.0986 53.7366C58.3001 53.4094 59.3945 52.7721 60.2722 51.8888C61.1499 51.0055 61.7801 49.907 62.0997 48.7034C63.2819 44.2633 63.2819 35 63.2819 35C63.2819 35 63.2819 25.7366 62.0997 21.2975Z" stroke="black" stroke-width="2" stroke-miterlimit="10"/>
<path d="M29.2152 43.4097L43.9988 35L29.2152 26.5903V43.4097Z" stroke="black" stroke-width="2" stroke-miterlimit="10" stroke-linecap="round" stroke-linejoin="round"/>
</svg>
